#!OML:ASF I:\Actors\actors\Patient Classification 2\Patient 1\Session 1\actor1.ASF
:FULLY-SPECIFIED
:DEGREES
109
root -0.606526 18.6155 5.93269 -0.71921 -2.99778 -2.81961
lowerback 2.52024 0.764159 0.561199
upperback -1.75499 1.05576 0.463972
thorax -3.21452 0.518994 0.106702
lowerneck -9.48447 3.51787 3.53557
upperneck 25.7509 3.63394 2.50718
head 9.73107 2.30769 0.675067
rclavicle 6.78353e-015 -1.78906e-015
rhumerus -48.7974 -4.30553 -86.8216
rradius 40.5674
rwrist 20.3962
rhand -2.19449 -36.5394
rfingers 7.12502
rthumb 23.4868 -65.1257
lclavicle 6.78353e-015 -1.78906e-015
lhumerus -42.9953 3.08072 90.096
lradius 35.1596
lwrist 0.0360458
lhand -8.02987 -22.9595
lfingers 7.12502
lthumb 17.8801 6.23854
rfemur 9.55219 2.96296 16.5008
rtibia -3.18055e-014
rfoot -16.1552 -8.76785
rtoes -6.76241
lfemur -2.26544 -4.71538 -12.1486
ltibia 23.2652
lfoot -24.0924 13.3015
ltoes -55.3948
110
root -0.605337 18.6155 5.93129 -0.734359 -2.98918 -2.78549
lowerback 2.51955 0.748405 0.513822
upperback -1.73462 1.03308 0.476682
thorax -3.19421 0.508963 0.14766
lowerneck -9.64471 3.26171 3.43551
upperneck 25.7317 3.32992 2.32293
head 9.75345 2.13618 0.596583
rclavicle -2.09966e-015 -9.93923e-016
rhumerus -48.798 -4.14036 -86.8397
rradius 40.6125
rwrist 20.3244
rhand -2.20899 -36.6349
rfingers 7.12502
rthumb 23.4729 -65.2229
lclavicle -2.09966e-015 -9.93923e-016
lhumerus -42.9526 3.15072 90.1111
lradius 35.1145
lwrist -0.0560561
lhand -7.99668 -23.0263
lfingers 7.12502
lthumb 17.912 6.16883
rfemur 9.56043 2.95661 16.4552
rtibia 2.8625e-014
rfoot -16.1588 -8.74912
rtoes -6.7565
lfemur -2.25554 -4.75879 -12.1999
ltibia 23.2629
lfoot -24.1185 13.3263
ltoes -55.3901
111
root -0.60459 18.6155 5.93103 -0.733746 -2.9993 -2.76108
lowerback 2.49292 0.747753 0.482215
upperback -1.72511 1.0309 0.484345
thorax -3.17006 0.508725 0.173807
lowerneck -9.79454 3.01067 3.19091
upperneck 25.726 3.01026 2.34498
head 9.77182 1.96664 0.611981
rclavicle 9.49197e-015 -2.98177e-015
rhumerus -48.8156 -4.04492 -86.8142
rradius 40.6432
rwrist 20.3311
rhand -2.1509 -36.6306
rfingers 7.12502
rthumb 23.5287 -65.2115
lclavicle 9.49197e-015 -2.98177e-015
lhumerus -42.9371 3.17235 90.1336
lradius 35.0821
lwrist -0.0575725
lhand -8.01273 -23.0594
lfingers 7.12502
lthumb 17.8966 6.13712
rfemur 9.55524 2.96751 16.4235
rtibia -2.06736e-014
rfoot -16.1681 -8.72293
rtoes -6.7277
lfemur -2.25362 -4.75238 -12.2326
ltibia 23.257
lfoot -24.1292 13.3406
ltoes -55.4223
112
root -0.604904 18.6157 5.93072 -0.718862 -3.02925 -2.74088
lowerback 2.47017 0.756056 0.432584
upperback -1.73407 1.04008 0.48961
thorax -3.16745 0.514463 0.206794
lowerneck -9.95201 2.77008 2.88611
upperneck 25.7295 2.6936 2.46221
head 9.79349 1.80354 0.671108
rclavicle 5.69021e-015 9.54166e-015
rhumerus -48.8199 -4.01266 -86.7701
rradius 40.6293
rwrist 20.3627
rhand -2.21056 -36.5084
rfingers 7.12502
rthumb 23.4714 -65.0967
lclavicle 5.69021e-015 9.54166e-015
lhumerus -42.9039 3.09687 90.1506
lradius 34.8968
lwrist 0.0957694
lhand -8.09747 -23.5393
lfingers 7.12502
lthumb 17.8151 5.66464
rfemur 9.53229 2.99661 16.4029
rtibia -3.81667e-014
rfoot -16.1706 -8.73325
rtoes -6.65208
lfemur -2.26251 -4.73953 -12.2555
ltibia 23.2484
lfoot -24.1315 13.362
ltoes -55.4649
113
root -0.604633 18.616 5.93026 -0.712483 -3.04855 -2.74024
lowerback 2.43311 0.756479 0.402511
upperback -1.72053 1.03945 0.501735
thorax -3.13333 0.515021 0.236769
lowerneck -10.1177 2.54236 2.56283
upperneck 25.6429 2.38629 2.63702
head 9.78499 1.64856 0.753082
rclavicle -3.71479e-015 1.78906e-015
rhumerus -48.7545 -3.98208 -86.7478
rradius 40.6162
rwrist 20.3058
rhand -2.41258 -36.6502
rfingers 7.12502
rthumb 23.2776 -65.2631
lclavicle -3.71479e-015 1.78906e-015
lhumerus -42.8365 3.16565 90.0671
lradius 34.6111
lwrist 0.0436896
lhand -8.12424 -24.5025
lfingers 7.12502
lthumb 17.7893 4.70384
rfemur 9.52038 3.01549 16.4017
rtibia 6.36111e-015
rfoot -16.1742 -8.76654
rtoes -6.67601
lfemur -2.26109 -4.79071 -12.2687
ltibia 23.2404
lfoot -24.1382 13.4043
ltoes -55.4546
